<svg width="29" height="29" viewBox="0 0 29 29" fill="none" xmlns="http://www.w3.org/2000/svg">
<path d="M16.7612 6.6416L16.9721 7.10352L17.4311 6.88477L22.8256 4.31445L21.2319 10.0742L21.0961 10.5645L21.5883 10.6924L27.3735 12.1904L22.4496 15.5791L22.0307 15.8672L22.3266 16.2803L25.7934 21.1475L19.8452 20.5781L19.3393 20.5293L19.2993 21.0361L18.8266 26.9941L14.6362 22.7334L14.2797 22.3711L13.9233 22.7334L9.73187 26.9941L9.26019 21.0361L9.22015 20.5293L8.71429 20.5781L2.76508 21.1475L6.23383 16.2803L6.52875 15.8672L6.1098 15.5791L1.185 12.1904L6.97113 10.6924L7.46332 10.5645L7.32758 10.0742L5.73285 4.31445L11.1284 6.88477L11.5873 7.10352L11.7983 6.6416L14.2797 1.2041L16.7612 6.6416Z" stroke="white"/>
</svg>
