<svg width="118" height="14" viewBox="0 0 118 14" fill="none" xmlns="http://www.w3.org/2000/svg">
<path d="M3.1352e-05 1.05591H3.02403V13.0559H3.1352e-05V1.05591ZM4.62566 3.93591H7.58566L8.17766 7.48791V13.0559H5.20166V7.03991L4.62566 3.93591ZM11.5857 3.67991C12.4603 3.67991 13.2017 3.85591 13.8097 4.20791C14.4283 4.55991 14.8977 5.05591 15.2177 5.69591C15.5483 6.32524 15.7137 7.08257 15.7137 7.96791V13.0559H12.7377V8.41591C12.7377 7.65857 12.551 7.08791 12.1777 6.70391C11.8043 6.30924 11.271 6.11191 10.5777 6.11191C10.087 6.11191 9.66032 6.21857 9.29766 6.43191C8.93499 6.63457 8.65766 6.92791 8.46566 7.31191C8.27366 7.68524 8.17766 8.13324 8.17766 8.65591L7.23366 8.15991C7.35099 7.18924 7.61232 6.37324 8.01766 5.71191C8.43366 5.05057 8.94566 4.54924 9.55366 4.20791C10.1723 3.85591 10.8497 3.67991 11.5857 3.67991ZM23.6567 2.70391C23.006 2.70391 22.5313 2.82657 22.2327 3.07191C21.934 3.31724 21.7847 3.71724 21.7847 4.27191V13.0559H18.8247V4.55991C18.8247 3.69591 18.99 2.96524 19.3207 2.36791C19.662 1.75991 20.1633 1.29591 20.8247 0.975907C21.486 0.645241 22.3127 0.479908 23.3047 0.479908C23.7207 0.479908 24.094 0.517241 24.4247 0.591908C24.7553 0.655907 25.086 0.746574 25.4167 0.863908V3.07191C25.15 2.95457 24.8727 2.86391 24.5847 2.79991C24.2967 2.73591 23.9873 2.70391 23.6567 2.70391ZM16.9367 6.86391V4.65591H25.3047V6.86391H16.9367ZM26.8727 0.735908H29.8487V13.0559H26.8727V0.735908ZM35.6332 13.2959C34.7905 13.2959 34.0652 13.1252 33.4572 12.7839C32.8598 12.4319 32.4012 11.9359 32.0812 11.2959C31.7718 10.6559 31.6172 9.89857 31.6172 9.02391V3.93591H34.5932V8.59191C34.5932 9.32791 34.7692 9.89324 35.1212 10.2879C35.4732 10.6826 35.9798 10.8799 36.6412 10.8799C37.1318 10.8799 37.5478 10.7786 37.8892 10.5759C38.2305 10.3732 38.4918 10.0799 38.6732 9.69591C38.8652 9.31191 38.9612 8.85857 38.9612 8.33591L39.8892 8.83191C39.7825 9.79191 39.5265 10.6079 39.1212 11.2799C38.7265 11.9412 38.2252 12.4426 37.6172 12.7839C37.0198 13.1252 36.3585 13.2959 35.6332 13.2959ZM39.5372 13.0559L38.9612 9.50391V3.93591H41.9212V9.95191L42.5132 13.0559H39.5372ZM49.1803 13.3119C48.0923 13.3119 47.1163 13.1092 46.2523 12.7039C45.3989 12.2986 44.7269 11.7332 44.2363 11.0079C43.7456 10.2826 43.5003 9.43457 43.5003 8.46391C43.5003 7.51457 43.7349 6.68257 44.2043 5.96791C44.6736 5.25324 45.3189 4.69324 46.1403 4.28791C46.9723 3.88257 47.9109 3.67991 48.9563 3.67991C50.0229 3.67991 50.9403 3.91457 51.7083 4.38391C52.4763 4.85324 53.0683 5.51457 53.4843 6.36791C53.9003 7.22124 54.1083 8.22391 54.1083 9.37591H45.8843V7.50391H52.4763L51.4043 8.17591C51.3723 7.67457 51.2496 7.25324 51.0363 6.91191C50.8336 6.55991 50.5616 6.29324 50.2203 6.11191C49.8789 5.91991 49.4736 5.82391 49.0043 5.82391C48.4923 5.82391 48.0496 5.92524 47.6763 6.12791C47.3029 6.33057 47.0096 6.61324 46.7963 6.97591C46.5936 7.33857 46.4923 7.75991 46.4923 8.23991C46.4923 8.84791 46.6256 9.36524 46.8923 9.79191C47.1696 10.2186 47.5643 10.5439 48.0763 10.7679C48.5989 10.9919 49.2336 11.1039 49.9803 11.1039C50.6629 11.1039 51.3456 11.0132 52.0283 10.8319C52.7109 10.6399 53.3243 10.3732 53.8683 10.0319V11.9679C53.2496 12.3946 52.5403 12.7252 51.7403 12.9599C50.9509 13.1946 50.0976 13.3119 49.1803 13.3119ZM55.1257 3.93591H58.0857L58.6777 7.48791V13.0559H55.7017V7.03991L55.1257 3.93591ZM62.0857 3.67991C62.9603 3.67991 63.7017 3.85591 64.3097 4.20791C64.9283 4.55991 65.3977 5.05591 65.7177 5.69591C66.0483 6.32524 66.2137 7.08257 66.2137 7.96791V13.0559H63.2377V8.41591C63.2377 7.65857 63.051 7.08791 62.6777 6.70391C62.3043 6.30924 61.771 6.11191 61.0777 6.11191C60.587 6.11191 60.1603 6.21857 59.7977 6.43191C59.435 6.63457 59.1577 6.92791 58.9657 7.31191C58.7737 7.68524 58.6777 8.13324 58.6777 8.65591L57.7337 8.15991C57.851 7.18924 58.1123 6.37324 58.5177 5.71191C58.9337 5.05057 59.4457 4.54924 60.0537 4.20791C60.6723 3.85591 61.3497 3.67991 62.0857 3.67991ZM67.6588 13.0559V10.9759L74.1548 5.64791L76.2028 6.09591H67.7068V3.93591H77.3228V6.01591L70.8428 11.3439L69.0988 10.8959H77.3548V13.0559H67.6588ZM87.0332 13.0559L86.6332 9.74391L87.0652 8.49591L86.6332 7.26391L87.0332 3.93591H90.1212L89.5612 8.49591L90.1212 13.0559H87.0332ZM87.7692 8.49591C87.6092 9.46657 87.3052 10.3146 86.8572 11.0399C86.4092 11.7546 85.8438 12.3146 85.1612 12.7199C84.4785 13.1146 83.7105 13.3119 82.8572 13.3119C81.9612 13.3119 81.1718 13.1092 80.4892 12.7039C79.8172 12.2986 79.2892 11.7386 78.9052 11.0239C78.5212 10.2986 78.3292 9.45591 78.3292 8.49591C78.3292 7.53591 78.5212 6.69857 78.9052 5.98391C79.2892 5.25857 79.8172 4.69324 80.4892 4.28791C81.1718 3.88257 81.9612 3.67991 82.8572 3.67991C83.7105 3.67991 84.4785 3.88257 85.1612 4.28791C85.8438 4.68257 86.4092 5.23724 86.8572 5.95191C87.3158 6.66657 87.6198 7.51457 87.7692 8.49591ZM81.3372 8.49591C81.3372 8.98657 81.4385 9.42391 81.6412 9.80791C81.8438 10.1812 82.1212 10.4799 82.4732 10.7039C82.8358 10.9172 83.2518 11.0239 83.7212 11.0239C84.1905 11.0239 84.6332 10.9172 85.0492 10.7039C85.4758 10.4799 85.8492 10.1812 86.1692 9.80791C86.4892 9.42391 86.7292 8.98657 86.8892 8.49591C86.7292 8.00524 86.4892 7.57324 86.1692 7.19991C85.8492 6.81591 85.4758 6.51724 85.0492 6.30391C84.6332 6.07991 84.1905 5.96791 83.7212 5.96791C83.2518 5.96791 82.8358 6.07991 82.4732 6.30391C82.1212 6.51724 81.8438 6.81591 81.6412 7.19991C81.4385 7.57324 81.3372 8.00524 81.3372 8.49591ZM91.8077 3.80791L93.2797 4.11191L94.7677 3.80791V13.0559H91.8077V3.80791ZM93.2957 2.97591C92.773 2.97591 92.3463 2.84257 92.0157 2.57591C91.685 2.29857 91.5197 1.93591 91.5197 1.48791C91.5197 1.02924 91.685 0.666574 92.0157 0.399908C92.3463 0.133241 92.773 -9.25064e-05 93.2957 -9.25064e-05C93.829 -9.25064e-05 94.2557 0.133241 94.5757 0.399908C94.8957 0.666574 95.0557 1.02924 95.0557 1.48791C95.0557 1.93591 94.8957 2.29857 94.5757 2.57591C94.2557 2.84257 93.829 2.97591 93.2957 2.97591ZM96.6827 0.735908H99.6427V13.0559H96.6827V0.735908ZM101.558 0.735908H104.518V13.0559H101.558V0.735908ZM114.721 13.0559L114.321 9.74391L114.753 8.49591L114.321 7.26391L114.721 3.93591H117.809L117.249 8.49591L117.809 13.0559H114.721ZM115.457 8.49591C115.297 9.46657 114.993 10.3146 114.545 11.0399C114.097 11.7546 113.531 12.3146 112.849 12.7199C112.166 13.1146 111.398 13.3119 110.545 13.3119C109.649 13.3119 108.859 13.1092 108.177 12.7039C107.505 12.2986 106.977 11.7386 106.593 11.0239C106.209 10.2986 106.017 9.45591 106.017 8.49591C106.017 7.53591 106.209 6.69857 106.593 5.98391C106.977 5.25857 107.505 4.69324 108.177 4.28791C108.859 3.88257 109.649 3.67991 110.545 3.67991C111.398 3.67991 112.166 3.88257 112.849 4.28791C113.531 4.68257 114.097 5.23724 114.545 5.95191C115.003 6.66657 115.307 7.51457 115.457 8.49591ZM109.025 8.49591C109.025 8.98657 109.126 9.42391 109.329 9.80791C109.531 10.1812 109.809 10.4799 110.161 10.7039C110.523 10.9172 110.939 11.0239 111.409 11.0239C111.878 11.0239 112.321 10.9172 112.737 10.7039C113.163 10.4799 113.537 10.1812 113.857 9.80791C114.177 9.42391 114.417 8.98657 114.577 8.49591C114.417 8.00524 114.177 7.57324 113.857 7.19991C113.537 6.81591 113.163 6.51724 112.737 6.30391C112.321 6.07991 111.878 5.96791 111.409 5.96791C110.939 5.96791 110.523 6.07991 110.161 6.30391C109.809 6.51724 109.531 6.81591 109.329 7.19991C109.126 7.57324 109.025 8.00524 109.025 8.49591Z" fill="url(#paint0_linear_506_290)"/>
<defs>
<linearGradient id="paint0_linear_506_290" x1="-5.87385" y1="-4.57199" x2="126.976" y2="11.6631" gradientUnits="userSpaceOnUse">
<stop stop-color="#C6F1F7"/>
<stop offset="0.364583" stop-color="#F983E9"/>
<stop offset="0.739583" stop-color="#B877FF"/>
<stop offset="1" stop-color="#C2E9CD"/>
</linearGradient>
</defs>
</svg>
