<svg width="118" height="14" viewBox="0 0 118 14" fill="none" xmlns="http://www.w3.org/2000/svg">
<path d="M3.1352e-05 1.05615H3.02403V13.0562H3.1352e-05V1.05615ZM4.62566 3.93615H7.58566L8.17766 7.48815V13.0562H5.20166V7.04015L4.62566 3.93615ZM11.5857 3.68015C12.4603 3.68015 13.2017 3.85615 13.8097 4.20815C14.4283 4.56015 14.8977 5.05615 15.2177 5.69615C15.5483 6.32549 15.7137 7.08282 15.7137 7.96815V13.0562H12.7377V8.41615C12.7377 7.65882 12.551 7.08815 12.1777 6.70415C11.8043 6.30949 11.271 6.11215 10.5777 6.11215C10.087 6.11215 9.66032 6.21882 9.29766 6.43215C8.93499 6.63482 8.65766 6.92815 8.46566 7.31215C8.27366 7.68549 8.17766 8.13349 8.17766 8.65615L7.23366 8.16015C7.35099 7.18949 7.61232 6.37349 8.01766 5.71215C8.43366 5.05082 8.94566 4.54949 9.55366 4.20815C10.1723 3.85615 10.8497 3.68015 11.5857 3.68015ZM23.6567 2.70415C23.006 2.70415 22.5313 2.82682 22.2327 3.07215C21.934 3.31749 21.7847 3.71749 21.7847 4.27215V13.0562H18.8247V4.56015C18.8247 3.69615 18.99 2.96548 19.3207 2.36815C19.662 1.76015 20.1633 1.29615 20.8247 0.976151C21.486 0.645485 22.3127 0.480152 23.3047 0.480152C23.7207 0.480152 24.094 0.517485 24.4247 0.592152C24.7553 0.656151 25.086 0.746818 25.4167 0.864152V3.07215C25.15 2.95482 24.8727 2.86415 24.5847 2.80015C24.2967 2.73615 23.9873 2.70415 23.6567 2.70415ZM16.9367 6.86415V4.65615H25.3047V6.86415H16.9367ZM26.8727 0.736152H29.8487V13.0562H26.8727V0.736152ZM35.6332 13.2962C34.7905 13.2962 34.0652 13.1255 33.4572 12.7842C32.8598 12.4322 32.4012 11.9362 32.0812 11.2962C31.7718 10.6562 31.6172 9.89882 31.6172 9.02415V3.93615H34.5932V8.59215C34.5932 9.32815 34.7692 9.89349 35.1212 10.2882C35.4732 10.6828 35.9798 10.8802 36.6412 10.8802C37.1318 10.8802 37.5478 10.7788 37.8892 10.5762C38.2305 10.3735 38.4918 10.0802 38.6732 9.69615C38.8652 9.31215 38.9612 8.85882 38.9612 8.33615L39.8892 8.83215C39.7825 9.79215 39.5265 10.6082 39.1212 11.2802C38.7265 11.9415 38.2252 12.4428 37.6172 12.7842C37.0198 13.1255 36.3585 13.2962 35.6332 13.2962ZM39.5372 13.0562L38.9612 9.50415V3.93615H41.9212V9.95215L42.5132 13.0562H39.5372ZM49.1803 13.3122C48.0923 13.3122 47.1163 13.1095 46.2523 12.7042C45.3989 12.2988 44.7269 11.7335 44.2363 11.0082C43.7456 10.2828 43.5003 9.43482 43.5003 8.46415C43.5003 7.51482 43.7349 6.68282 44.2043 5.96815C44.6736 5.25349 45.3189 4.69348 46.1403 4.28815C46.9723 3.88282 47.9109 3.68015 48.9563 3.68015C50.0229 3.68015 50.9403 3.91482 51.7083 4.38415C52.4763 4.85349 53.0683 5.51482 53.4843 6.36815C53.9003 7.22149 54.1083 8.22415 54.1083 9.37615H45.8843V7.50415H52.4763L51.4043 8.17615C51.3723 7.67482 51.2496 7.25349 51.0363 6.91215C50.8336 6.56015 50.5616 6.29349 50.2203 6.11215C49.8789 5.92015 49.4736 5.82415 49.0043 5.82415C48.4923 5.82415 48.0496 5.92549 47.6763 6.12815C47.3029 6.33082 47.0096 6.61349 46.7963 6.97615C46.5936 7.33882 46.4923 7.76015 46.4923 8.24015C46.4923 8.84815 46.6256 9.36549 46.8923 9.79215C47.1696 10.2188 47.5643 10.5442 48.0763 10.7682C48.5989 10.9922 49.2336 11.1042 49.9803 11.1042C50.6629 11.1042 51.3456 11.0135 52.0283 10.8322C52.7109 10.6402 53.3243 10.3735 53.8683 10.0322V11.9682C53.2496 12.3948 52.5403 12.7255 51.7403 12.9602C50.9509 13.1948 50.0976 13.3122 49.1803 13.3122ZM55.1257 3.93615H58.0857L58.6777 7.48815V13.0562H55.7017V7.04015L55.1257 3.93615ZM62.0857 3.68015C62.9603 3.68015 63.7017 3.85615 64.3097 4.20815C64.9283 4.56015 65.3977 5.05615 65.7177 5.69615C66.0483 6.32549 66.2137 7.08282 66.2137 7.96815V13.0562H63.2377V8.41615C63.2377 7.65882 63.051 7.08815 62.6777 6.70415C62.3043 6.30949 61.771 6.11215 61.0777 6.11215C60.587 6.11215 60.1603 6.21882 59.7977 6.43215C59.435 6.63482 59.1577 6.92815 58.9657 7.31215C58.7737 7.68549 58.6777 8.13349 58.6777 8.65615L57.7337 8.16015C57.851 7.18949 58.1123 6.37349 58.5177 5.71215C58.9337 5.05082 59.4457 4.54949 60.0537 4.20815C60.6723 3.85615 61.3497 3.68015 62.0857 3.68015ZM67.6588 13.0562V10.9762L74.1548 5.64815L76.2028 6.09615H67.7068V3.93615H77.3228V6.01615L70.8428 11.3442L69.0988 10.8962H77.3548V13.0562H67.6588ZM87.0332 13.0562L86.6332 9.74415L87.0652 8.49615L86.6332 7.26415L87.0332 3.93615H90.1212L89.5612 8.49615L90.1212 13.0562H87.0332ZM87.7692 8.49615C87.6092 9.46682 87.3052 10.3148 86.8572 11.0402C86.4092 11.7548 85.8438 12.3148 85.1612 12.7202C84.4785 13.1148 83.7105 13.3122 82.8572 13.3122C81.9612 13.3122 81.1718 13.1095 80.4892 12.7042C79.8172 12.2988 79.2892 11.7388 78.9052 11.0242C78.5212 10.2988 78.3292 9.45615 78.3292 8.49615C78.3292 7.53615 78.5212 6.69882 78.9052 5.98415C79.2892 5.25882 79.8172 4.69348 80.4892 4.28815C81.1718 3.88282 81.9612 3.68015 82.8572 3.68015C83.7105 3.68015 84.4785 3.88282 85.1612 4.28815C85.8438 4.68282 86.4092 5.23749 86.8572 5.95215C87.3158 6.66682 87.6198 7.51482 87.7692 8.49615ZM81.3372 8.49615C81.3372 8.98682 81.4385 9.42415 81.6412 9.80815C81.8438 10.1815 82.1212 10.4802 82.4732 10.7042C82.8358 10.9175 83.2518 11.0242 83.7212 11.0242C84.1905 11.0242 84.6332 10.9175 85.0492 10.7042C85.4758 10.4802 85.8492 10.1815 86.1692 9.80815C86.4892 9.42415 86.7292 8.98682 86.8892 8.49615C86.7292 8.00549 86.4892 7.57349 86.1692 7.20015C85.8492 6.81615 85.4758 6.51749 85.0492 6.30415C84.6332 6.08015 84.1905 5.96815 83.7212 5.96815C83.2518 5.96815 82.8358 6.08015 82.4732 6.30415C82.1212 6.51749 81.8438 6.81615 81.6412 7.20015C81.4385 7.57349 81.3372 8.00549 81.3372 8.49615ZM91.8077 3.80815L93.2797 4.11215L94.7677 3.80815V13.0562H91.8077V3.80815ZM93.2957 2.97615C92.773 2.97615 92.3463 2.84282 92.0157 2.57615C91.685 2.29882 91.5197 1.93615 91.5197 1.48815C91.5197 1.02949 91.685 0.666819 92.0157 0.400152C92.3463 0.133485 92.773 0.000151634 93.2957 0.000151634C93.829 0.000151634 94.2557 0.133485 94.5757 0.400152C94.8957 0.666819 95.0557 1.02949 95.0557 1.48815C95.0557 1.93615 94.8957 2.29882 94.5757 2.57615C94.2557 2.84282 93.829 2.97615 93.2957 2.97615ZM96.6827 0.736152H99.6427V13.0562H96.6827V0.736152ZM101.558 0.736152H104.518V13.0562H101.558V0.736152ZM114.721 13.0562L114.321 9.74415L114.753 8.49615L114.321 7.26415L114.721 3.93615H117.809L117.249 8.49615L117.809 13.0562H114.721ZM115.457 8.49615C115.297 9.46682 114.993 10.3148 114.545 11.0402C114.097 11.7548 113.531 12.3148 112.849 12.7202C112.166 13.1148 111.398 13.3122 110.545 13.3122C109.649 13.3122 108.859 13.1095 108.177 12.7042C107.505 12.2988 106.977 11.7388 106.593 11.0242C106.209 10.2988 106.017 9.45615 106.017 8.49615C106.017 7.53615 106.209 6.69882 106.593 5.98415C106.977 5.25882 107.505 4.69348 108.177 4.28815C108.859 3.88282 109.649 3.68015 110.545 3.68015C111.398 3.68015 112.166 3.88282 112.849 4.28815C113.531 4.68282 114.097 5.23749 114.545 5.95215C115.003 6.66682 115.307 7.51482 115.457 8.49615ZM109.025 8.49615C109.025 8.98682 109.126 9.42415 109.329 9.80815C109.531 10.1815 109.809 10.4802 110.161 10.7042C110.523 10.9175 110.939 11.0242 111.409 11.0242C111.878 11.0242 112.321 10.9175 112.737 10.7042C113.163 10.4802 113.537 10.1815 113.857 9.80815C114.177 9.42415 114.417 8.98682 114.577 8.49615C114.417 8.00549 114.177 7.57349 113.857 7.20015C113.537 6.81615 113.163 6.51749 112.737 6.30415C112.321 6.08015 111.878 5.96815 111.409 5.96815C110.939 5.96815 110.523 6.08015 110.161 6.30415C109.809 6.51749 109.531 6.81615 109.329 7.20015C109.126 7.57349 109.025 8.00549 109.025 8.49615Z" fill="white"/>
</svg>
