<svg width="77" height="29" viewBox="0 0 77 29" fill="none" xmlns="http://www.w3.org/2000/svg">
<path d="M64.8135 6.6416L65.0244 7.10352L65.4824 6.88477L70.8828 4.31348L69.2881 10.0742L69.1523 10.5645L69.6445 10.6924L75.4336 12.1904L70.5068 15.5781L70.0879 15.8672L70.3828 16.2812L73.8535 21.1475L67.8994 20.5781L67.3936 20.5293L67.3535 21.0361L66.8799 26.9932L62.6855 22.7334L62.3291 22.3711L61.9736 22.7334L57.7783 26.9932L57.3057 21.0361L57.2656 20.5293L56.7598 20.5781L50.8057 21.1475L54.2764 16.2812L54.5713 15.8672L54.1523 15.5781L50.6035 13.1387L50.3203 12.9434L50.0371 13.1387L46.4873 15.5781L46.0684 15.8672L46.3633 16.2812L49.834 21.1475L43.8799 20.5781L43.374 20.5293L43.334 21.0361L42.8613 26.9941L38.667 22.7334L38.3105 22.3711L37.9541 22.7334L33.7588 26.9941L33.2871 21.0361L33.2461 20.5293L32.7402 20.5781L26.7861 21.1475L30.2568 16.2812L30.5527 15.8672L30.1328 15.5781L26.584 13.1387L26.3008 12.9434L26.0176 13.1387L22.4678 15.5781L22.0488 15.8672L22.3447 16.2812L25.8145 21.1475L19.8613 20.5781L19.3545 20.5293L19.3145 21.0361L18.8418 26.9941L14.6475 22.7334L14.291 22.3711L13.9346 22.7334L9.73926 26.9941L9.26758 21.0361L9.22754 20.5293L8.72168 20.5781L2.7666 21.1475L6.23828 16.2812L6.5332 15.8672L6.11426 15.5781L1.18555 12.1904L6.97656 10.6924L7.46875 10.5645L7.33301 10.0742L5.7373 4.31445L11.1377 6.88477L11.5967 7.10352L11.8076 6.6416L14.291 1.2041L16.7744 6.6416L16.9854 7.10352L17.4443 6.88477L22.8438 4.31445L21.249 10.0742L21.1133 10.5645L21.6055 10.6924L26.1758 11.875L26.3008 11.9082L26.4258 11.875L30.9961 10.6924L31.4883 10.5645L31.3525 10.0742L29.7559 4.31348L35.1572 6.88477L35.6162 7.10352L35.8271 6.6416L38.3105 1.2041L40.7939 6.6416L41.0049 7.10352L41.4639 6.88477L46.8633 4.31445L45.2686 10.0742L45.1328 10.5645L45.625 10.6924L50.1943 11.875L50.3203 11.9082L50.4453 11.875L55.0146 10.6924L55.5068 10.5645L55.3711 10.0742L53.7754 4.31348L59.1768 6.88477L59.6348 7.10352L59.8457 6.6416L62.3291 1.20312L64.8135 6.6416Z" stroke="white"/>
</svg>
